<?xml version="1.0" encoding="UTF-8"?>
<!-- Generator: Adobe Illustrator 26.2.1, SVG Export Plug-In . SVG Version: 6.00 Build 0)  -->
<svg xmlns="http://www.w3.org/2000/svg" xmlns:xlink="http://www.w3.org/1999/xlink" version="1.1" id="Layer_1" x="0px" y="0px" viewBox="0 0 1052.3 415.38" style="enable-background:new 0 0 1052.3 415.38;" xml:space="preserve">
<style type="text/css">
	.st0{fill:#333092;}
	.st1{fill:#00BCE4;}
	.st2{fill:#FFFFFF;}
</style>
<g>
	<rect class="st0" width="278.78" height="415.38"></rect>
	<path class="st1" d="M139.38,139.39c-75.42,0-136.6,61.16-136.6,136.6c0,75.44,61.17,136.6,136.6,136.6   c75.46,0,136.6-61.16,136.6-136.6l0,0h-136.6V139.39z"></path>
	<path class="st1" d="M275.98,2.78h-136.6v136.61c75.46,0,136.6,61.15,136.6,136.6l0,0V2.78z"></path>
	<path class="st1" d="M165.24,255.99l-2.14-3.53h43.63c5.76-17.14,9.36-32.81,10.78-47.01c5.38,2.4,8.75,4.06,10.08,4.96   c1.33,0.91,2.03,1.66,2.03,2.25c0,0.75-0.68,1.26-1.97,1.56c-1.31,0.3-2.07,0.68-2.27,1.16l-8.2,21.61l-6.59,15.46h19.74l5.57-7.3   c0.11-0.15,0.45-0.22,1.02-0.22c0.57,0,2.43,1.44,5.55,4.3c3.14,2.87,4.7,4.58,4.7,5.15c0,0.53-0.23,0.8-0.7,0.8h-68.18   C176.53,255.18,172.19,255.44,165.24,255.99z M170.24,205.62l-2.37-3.83h60.17c3.9-5.09,6.01-7.63,6.33-7.63   c0.42,0,2.25,1.52,5.57,4.55c3.3,3.04,4.95,4.88,4.95,5.53c0,0.39-0.25,0.58-0.72,0.58h-64.79   C177.74,204.82,174.69,205.09,170.24,205.62z M185.83,206.43c9.87,13.84,14.8,23.96,14.8,30.35c0,2.88-0.78,5.39-2.31,7.53   c-1.55,2.14-3.11,3.21-4.64,3.21c-1.29,0-2.12-1.04-2.46-3.13c-0.23-15-2.6-27.38-7.07-37.12   C184.4,206.89,184.94,206.6,185.83,206.43z M195.33,179.78l1.02-1.25c3.87,1.22,7.33,2.75,10.36,4.61   c3.05,1.86,4.91,3.44,5.57,4.75c0.66,1.31,1,2.72,1,4.22c0,1.88-0.64,3.63-1.89,5.24c-1.27,1.62-2.62,2.43-4.02,2.43   c-1.5,0-2.54-1.28-3.13-3.83C202.85,189.74,199.87,184.35,195.33,179.78z"></path>
	<path class="st0" d="M164.27,71.23l-1.29-1.11c14.44-12.21,23.85-23.25,28.21-33.11l0.59-0.13l5.68,3.2   c2.18,1.22,3.26,2.07,3.26,2.54c0,0.33-0.72,0.78-2.16,1.36c-1.44,0.58-2.71,1.45-3.81,2.6c15.04,2.88,22.56,7.11,22.56,12.71   c0,0.62-0.27,1.49-0.76,2.6c-0.49,1.12-1.17,1.68-2.1,1.68c-0.42,0-1.44-0.84-3.07-2.5c-5.76-5.97-11.75-10.29-18.02-12.96   C185.15,57.23,175.43,64.93,164.27,71.23z M210.01,102.16v4.29l0.34,11.23c0.04,0.77-1.04,1.53-3.22,2.28   c-2.18,0.74-3.52,1.11-4,1.11c-0.42,0-0.61-0.26-0.61-0.75v-6.65h-15.69v4.91c0,0.8-1.08,1.55-3.24,2.26   c-2.16,0.72-3.3,1.07-3.47,1.07c-0.32,0-0.68-0.25-1.06-0.76l0.27-8.11v-6.42l-0.27-7.57c-0.04-0.03-0.08-0.04-0.13-0.04   c-0.11,0-0.26,0.2-0.42,0.62c-0.17,0.42-1.52,2.28-4.07,5.59c-2.56,3.32-5.74,6.56-9.55,9.73c-0.36-0.11-0.8-0.46-1.34-1.02   c5.51-7.48,9.06-13.86,10.7-19.14c1.63-5.26,2.46-11.94,2.46-19.98c0-3.36-0.15-6.9-0.42-10.61c0.36-0.06,0.99,0.13,1.84,0.54   l7.39,3.57h17.92l2.71-3.03c0.19-0.21,0.44-0.32,0.72-0.32c0.47,0,1.76,0.67,3.85,2.01c2.1,1.34,3.14,2.21,3.14,2.63   c0,0.33-0.44,0.83-1.29,1.52c-0.85,0.68-1.31,1.32-1.36,1.89c-0.04,0.58-0.06,2.22-0.06,4.92l0.23,12.57   c0,0.65-0.32,1.07-0.95,1.24l-4.91,1.65c-0.27,0.08-0.49,0.13-0.7,0.13c-0.51,0-0.76-0.27-0.76-0.84v-2.6h-21.71   c-0.44,1.64-0.93,3.11-1.48,4.42l6.55,3.07h14.53l2.8-3.43c0.17-0.17,0.38-0.26,0.66-0.26c0.3,0,0.64,0.11,0.99,0.35l6.02,3.93   c0.19,0.11,0.27,0.32,0.27,0.62c0,0.49-0.46,1.05-1.35,1.7C210.44,101.13,210.01,101.69,210.01,102.16z M204.08,79.97h-20.27   c-0.34,3.57-0.64,6.03-0.91,7.4h21.18V79.97z M183.88,77.25h20.2v-6.24h-20.2V77.25z M186.84,110.9h15.69v-10.56h-15.69V110.9z    M188.49,55.5l0.7-1.42c4.77,1.42,7.98,2.7,9.55,3.83c1.55,1.14,2.35,2.54,2.35,4.23c0,1.1-0.36,2.22-1.1,3.36   c-0.76,1.15-1.54,1.72-2.33,1.72c-1.04,0-1.76-0.58-2.18-1.73c-0.42-1.16-1.38-2.91-2.88-5.24   C191.1,57.92,189.72,56.34,188.49,55.5z M219.48,83.18V56.26l-0.44-6.77c4.66,1.31,7.45,2.13,8.34,2.45   c0.89,0.33,1.35,0.75,1.35,1.25c0,0.42-0.15,0.78-0.46,1.07l-2.58,2.36v14.04l0.08,16.63l0.25,9.94c0.02,0.65-0.81,1.28-2.54,1.89   c-1.71,0.61-2.86,0.9-3.45,0.9c-0.47,0-0.85-0.33-1.16-0.97L219.48,83.18z M242.05,46.78V97.4l0.17,13.68   c0.04,3.21-0.51,5.38-1.61,6.54c-1.12,1.14-4.24,2.81-9.34,5.01c-1.44-5.08-5.25-8.44-11.5-10.07l0.36-1.92   c5.91,1.25,10.04,1.87,12.39,1.87c1.17,0,1.8-0.4,1.88-1.21l0.17-2.76V52.43c0-4.37-0.17-9.09-0.55-14.17   c2.18,0.56,4.45,1.24,6.88,2c2.41,0.77,3.75,1.28,4.02,1.52c0.3,0.23,0.44,0.54,0.44,0.93c0,0.3-0.55,0.93-1.65,1.89   C242.59,45.58,242.05,46.3,242.05,46.78z"></path>
</g>
<g>
	<path class="st2" d="M410.38,301.96c-1.36,3.47-2.35,7.06-2.72,10.52c-6.56,3.47-15.1,5.45-25.26,5.45   c-28.72,0-45.68-17.95-45.68-41.35c0-34.17,23.15-47.29,49.15-47.29c8.67,0,19.56,2.6,25.26,6.07c-1.61,4.09-2.48,8.42-2.85,12.63   h-1.73c-6.19-7.68-12.5-11.02-21.29-11.02c-13.25,0-28.23,11.51-28.23,37.76c0,25.5,15.1,35.53,29.34,35.53   c7.92,0,17.09-3.71,22.41-9.28L410.38,301.96z"></path>
	<path class="st2" d="M481.93,274.97c-6.31-0.12-12.5-0.5-18.82-0.5c-6.19,0-12.5,0.25-18.82,0.5v7.06c0,13.87,0.25,23.4,0.99,34.3   c-2.72-0.25-6.07-0.62-10.15-0.62c-4.09,0-7.43,0.37-10.15,0.62c0.74-10.89,0.99-20.43,0.99-34.3v-16.84   c0-13.87-0.25-23.4-0.99-34.3c2.72,0.25,6.07,0.62,10.15,0.62c4.09,0,7.43-0.37,10.15-0.62c-0.74,10.77-0.99,20.3-0.99,34.05   c4.21,0.12,10.15,0.25,18.94,0.25c8.79,0,13.99-0.12,18.69-0.25c0-13.74-0.25-23.28-0.99-34.05c2.72,0.25,6.07,0.62,10.15,0.62   c4.09,0,7.43-0.37,10.15-0.62c-0.74,10.9-0.99,20.43-0.99,34.3v16.84c0,13.87,0.25,23.4,0.99,34.3c-2.72-0.25-6.07-0.62-10.15-0.62   c-4.09,0-7.43,0.37-10.15,0.62c0.74-10.89,0.99-20.43,0.99-34.3V274.97z"></path>
	<path class="st2" d="M563.15,229.29c26.25,0,46.92,14.36,46.92,44.2c0,24.51-19.68,44.45-47.29,44.45   c-26.12,0-47.17-13.37-47.17-44.32C515.61,249.22,534.43,229.29,563.15,229.29z M562.78,236.34c-16.96,0-26.87,17.09-26.87,38.38   c0,26.37,12.13,35.53,26,35.53c14.86,0,27.86-12.38,27.86-39.37C589.77,249.47,578.75,236.34,562.78,236.34z"></path>
	<path class="st2" d="M625.92,230.89c1.86,0.37,3.71,0.62,5.57,0.62c1.86,0,3.71-0.25,5.57-0.62   c17.83,19.69,35.53,39.25,53.73,58.93c0-19.68,0-53.36-0.87-58.93c1.86,0.37,3.71,0.62,5.57,0.62c1.86,0,3.71-0.25,5.57-0.62   c-1.98,36.03-1.98,52.49-1.98,85.43c-1.73-0.37-3.34-0.62-5.08-0.62c-1.73,0-3.34,0.25-4.83,0.62   c-16.96-20.06-35.04-40.11-54.1-60.17c-0.25,9.29-0.25,19.56-0.25,28.85c0,19.81,0.37,26.74,0.74,31.32   c-1.98-0.37-3.96-0.62-5.82-0.62c-1.86,0-3.84,0.25-5.69,0.62c0.62-3.59,2.48-35.53,2.48-60.79   C626.54,244.39,626.04,236.84,625.92,230.89z"></path>
	<path class="st2" d="M792.44,249.34c-5.2-7.43-13.12-12.38-24.39-12.38c-15.35,0-31.2,12.75-31.2,38.75   c0,19.69,11.02,34.54,30.09,34.54c4.21,0,11.51-0.87,13.49-2.23c0.37-1.98,0.37-5.08,0.37-8.67c0-13.37-0.74-18.94-0.87-21.29   c1.61,0.25,4.08,0.62,9.16,0.62c5.94,0,8.42-0.37,10.03-0.62c-0.62,2.6-0.99,12.87-0.99,20.8c0,5.2,0.12,11.76,0.37,13.62   c-10.77,3.09-22.16,5.45-33.06,5.45c-28.48,0-48.9-16.22-48.9-41.47c0-31.45,22.16-47.17,51.26-47.17c12.5,0,20.92,2.72,29.84,7.43   c-1.36,4.21-2.72,8.42-3.47,12.63H792.44z"></path>
	<path class="st2" d="M852.48,265.19c0-13.87-0.25-23.4-0.99-34.3c2.72,0.25,6.07,0.62,10.15,0.62c4.09,0,7.43-0.37,10.15-0.62   c-0.74,10.9-0.99,20.43-0.99,34.3v16.84c0,9.16,0.12,18.57,0.25,25.01c9.28,0,18.82-0.5,28.35-1.61c-0.25,1.73-0.5,2.97-0.5,5.57   c0,2.6,0.25,3.84,0.5,5.32c-4.46-0.12-10.28-0.62-21.67-0.62c-20.18,0-23.52,0.37-26.25,0.62c0.74-10.89,0.99-20.43,0.99-34.3   V265.19z"></path>
	<path class="st2" d="M984.21,316.32c-3.96-0.25-7.43-0.62-10.9-0.62s-7.06,0.37-10.52,0.62c-2.6-8.42-5.45-16.96-8.54-25.38   c-5.32-0.12-10.52-0.25-15.85-0.25c-4.33,0-8.54,0.12-12.88,0.25c-3.34,8.42-6.07,16.84-8.42,25.38c-1.98-0.25-3.84-0.62-5.82-0.62   s-3.84,0.37-6.19,0.62c6.07-13.74,24.64-57.82,35.28-86.04c1.61,0.25,3.09,0.62,4.7,0.62c1.61,0,3.1-0.37,4.7-0.62   C960.32,258.5,974.8,296.14,984.21,316.32z M951.4,283.64c-3.59-10.03-7.06-19.81-11.02-29.47c-4.21,9.66-8.05,19.44-11.64,29.47   H951.4z"></path>
	<path class="st2" d="M995.84,265.19c0-13.87-0.25-23.4-0.99-34.3c2.72,0.25,6.07,0.62,10.15,0.62c5.7,0,12.13-0.62,18.08-0.62   c11.64,0,17.7,1.86,21.54,5.08c5.2,4.33,7.68,9.41,7.68,16.71c0,18.94-13.37,26.49-31.82,26.49h-6.31   c0,12.38,0.12,24.76,0.99,37.14c-2.72-0.25-6.07-0.62-10.15-0.62c-4.09,0-7.43,0.37-10.15,0.62c0.74-10.89,0.99-20.43,0.99-34.3   V265.19z M1019.61,237.95c-1.98,0-3.84,0-5.2,0.12c-0.12,11.64-0.25,23.28-0.25,34.79c8.3,0,18.57-2.23,18.57-18.2   C1032.74,242.04,1026.67,237.95,1019.61,237.95z"></path>
</g>
<g>
	<path class="st2" d="M582.84,348.65c-7.54,8.48-10.05,17.43-10.05,31.8c0,12.33,2.67,21.59,9.97,29.99l-2.12,1.96   c-9.89-8.01-16.33-17.59-16.33-32.5c0-17.04,6.83-25.28,16.49-33.29L582.84,348.65z"></path>
	<path class="st2" d="M626.65,375.58c-4-0.08-7.93-0.31-11.93-0.31c-3.92,0-7.93,0.16-11.93,0.31v4.47c0,8.79,0.16,14.84,0.63,21.75   c-1.73-0.16-3.85-0.39-6.44-0.39s-4.71,0.24-6.44,0.39c0.47-6.91,0.63-12.95,0.63-21.75v-10.68c0-8.79-0.16-14.84-0.63-21.75   c1.73,0.16,3.85,0.39,6.44,0.39s4.71-0.24,6.44-0.39c-0.47,6.83-0.63,12.88-0.63,21.59c2.67,0.08,6.44,0.16,12.01,0.16   c5.57,0,8.87-0.08,11.86-0.16c0-8.72-0.16-14.76-0.63-21.59c1.73,0.16,3.85,0.39,6.44,0.39c2.59,0,4.71-0.24,6.44-0.39   c-0.47,6.91-0.63,12.95-0.63,21.75v10.68c0,8.79,0.16,14.84,0.63,21.75c-1.73-0.16-3.85-0.39-6.44-0.39   c-2.59,0-4.71,0.24-6.44,0.39c0.47-6.91,0.63-12.95,0.63-21.75V375.58z"></path>
	<path class="st2" d="M656.17,389.95c3.53,0,6.44,2.9,6.44,6.44c0,3.53-2.9,6.44-6.44,6.44c-3.53,0-6.44-2.9-6.44-6.44   C649.73,392.85,652.63,389.95,656.17,389.95z"></path>
	<path class="st2" d="M684.98,377.15c0,11.31,0,19.71,0.63,24.65c-1.73-0.16-3.85-0.39-6.44-0.39c-2.59,0-4.71,0.24-6.44,0.39   c0.47-6.91,0.63-12.95,0.63-21.75v-10.68c0-8.79-0.16-14.84-0.63-21.75c1.73,0.16,3.85,0.39,6.44,0.39c2.59,0,4.71-0.24,6.44-0.39   c-0.63,4.16-0.63,14.92-0.63,25.04c7.07-8.32,17.27-21.04,20.02-25.04c1.49,0.16,2.9,0.39,4.4,0.39c1.41,0,2.9-0.24,4.71-0.39   c-3.53,3.53-16.17,17.51-20.26,22.61c6.75,10.21,17.19,25.99,21.43,31.56c-3.06-0.16-5.34-0.39-7.62-0.39   c-2.28,0-4.55,0.24-6.83,0.39c-5.18-8.24-10.52-16.49-15.7-24.65H684.98z"></path>
	<path class="st2" d="M725.96,389.95c3.53,0,6.44,2.9,6.44,6.44c0,3.53-2.9,6.44-6.44,6.44c-3.53,0-6.44-2.9-6.44-6.44   C719.52,392.85,722.43,389.95,725.96,389.95z"></path>
	<path class="st2" d="M740.25,346.61c9.66,8.01,16.49,16.25,16.49,33.29c0,14.92-6.44,24.5-16.33,32.5l-2.12-1.96   c7.3-8.4,9.97-17.67,9.97-29.99c0-14.37-2.51-23.32-10.05-31.8L740.25,346.61z"></path>
	<path class="st2" d="M834.31,392.7c-0.86,2.2-1.49,4.47-1.73,6.67c-4.16,2.2-9.58,3.45-16.02,3.45   c-18.22,0-28.97-11.38-28.97-26.22c0-21.67,14.68-29.99,31.17-29.99c5.5,0,12.41,1.65,16.02,3.85c-1.02,2.59-1.57,5.34-1.81,8.01   h-1.1c-3.93-4.87-7.93-6.99-13.5-6.99c-8.4,0-17.9,7.3-17.9,23.95c0,16.17,9.58,22.53,18.61,22.53c5.02,0,10.84-2.35,14.21-5.89   L834.31,392.7z"></path>
	<path class="st2" d="M859.04,362.78c12.09,0,19.24,7.46,19.24,19.24c0,12.8-7.93,20.81-19.24,20.81c-9.34,0-19.24-5.18-19.24-19.08   C839.8,369.69,849.14,362.78,859.04,362.78z M859.19,366.31c-4.79,0-7.77,5.65-7.77,17.51c0,8.79,1.88,15.47,7.7,15.47   c4.87,0,7.54-6.28,7.54-18.45C866.65,371.81,864.37,366.31,859.19,366.31z"></path>
	<path class="st2" d="M891.77,389.95c3.53,0,6.44,2.9,6.44,6.44c0,3.53-2.9,6.44-6.44,6.44c-3.53,0-6.44-2.9-6.44-6.44   C885.33,392.85,888.24,389.95,891.77,389.95z"></path>
	<path class="st2" d="M931.5,369.38c0-8.79-0.16-14.84-0.63-21.75c1.73,0.16,3.85,0.39,6.44,0.39c2.59,0,4.71-0.24,6.44-0.39   c-0.47,6.91-0.63,12.95-0.63,21.75v10.68c0,5.81,0.08,11.78,0.16,15.86c5.89,0,11.93-0.31,17.98-1.02   c-0.16,1.1-0.31,1.88-0.31,3.53c0,1.65,0.16,2.43,0.31,3.38c-2.83-0.08-6.52-0.39-13.74-0.39c-12.8,0-14.92,0.24-16.64,0.39   c0.47-6.91,0.63-12.95,0.63-21.75V369.38z"></path>
	<path class="st2" d="M988.58,364.2c-0.16,0.78-0.24,1.41-0.24,2.12c0,0.63,0.08,1.33,0.24,1.96l-6.91-0.16   c-0.31,4.71-0.55,13.27-0.55,17.51c0,10.91,0.79,12.72,4.4,12.72c1.96,0,2.67-0.23,3.61-0.78v3.22c-2.04,1.26-5.57,2.04-8.56,2.04   c-6.52,0-9.97-4.24-9.97-12.17c0-6.05,0.55-15.86,0.55-22.46l-5.5,0.08c0.16-0.63,0.24-1.33,0.24-1.96c0-0.71-0.08-1.33-0.24-2.12   l5.5,0.23c0-3.3-0.08-5.65-0.32-9.66c3.61-1.49,7.22-3.14,10.76-4.87l0.78,0.55c-0.39,3.37-0.71,9.19-0.71,13.9L988.58,364.2z"></path>
	<path class="st2" d="M1028.77,374.64c0,10.29,0.24,18.29,0.63,27.16c-1.34-0.24-3.61-0.39-5.89-0.39c-2.12,0-4.24,0.16-5.26,0.39   c0.24-0.71,0.63-5.73,0.63-6.44l-0.16-0.16c-1.96,4.55-5.18,7.62-11.23,7.62c-10.6,0-15-9.26-15-20.41   c0-11.23,6.67-19.63,15.15-19.63c4.55,0,8.64,2.51,10.44,5.81h0.16c0-9.34-0.24-17.35-0.63-26.22c1.34,0.24,3.61,0.39,5.89,0.39   c2.28,0,4.55-0.16,5.89-0.39c-0.39,8.87-0.63,16.88-0.63,27.16V374.64z M1010.87,397.96c4.24,0,7.38-4.47,7.38-15.78   c0-9.74-2.9-13.98-6.99-13.98c-3.3,0-7.15,3.38-7.15,15.39C1004.12,394.27,1007.34,397.96,1010.87,397.96z"></path>
	<path class="st2" d="M1044.48,389.95c3.53,0,6.44,2.9,6.44,6.44c0,3.53-2.9,6.44-6.44,6.44c-3.53,0-6.44-2.9-6.44-6.44   C1038.04,392.85,1040.94,389.95,1044.48,389.95z"></path>
</g>
</svg>
