<?xml version="1.0" encoding="UTF-8"?>
<!-- Generator: Adobe Illustrator 26.2.1, SVG Export Plug-In . SVG Version: 6.00 Build 0)  -->
<svg xmlns="http://www.w3.org/2000/svg" xmlns:xlink="http://www.w3.org/1999/xlink" version="1.1" id="Layer_1" x="0px" y="0px" viewBox="0 0 1154.37 415.67" style="enable-background:new 0 0 1154.37 415.67;" xml:space="preserve">
<style type="text/css">
	.st0{fill:#333092;}
	.st1{fill:#00BCE4;}
	.st2{fill:#FFFFFF;}
</style>
<g>
	<rect class="st0" width="278.78" height="415.38"></rect>
	<path class="st1" d="M139.38,139.39c-75.42,0-136.6,61.16-136.6,136.6c0,75.44,61.17,136.6,136.6,136.6   c75.46,0,136.6-61.16,136.6-136.6l0,0h-136.6V139.39z"></path>
	<path class="st1" d="M275.98,2.78h-136.6v136.61c75.46,0,136.6,61.15,136.6,136.6l0,0V2.78z"></path>
	<path class="st1" d="M165.24,255.99l-2.14-3.53h43.63c5.76-17.14,9.36-32.81,10.78-47.01c5.38,2.4,8.75,4.06,10.08,4.96   c1.33,0.91,2.03,1.66,2.03,2.25c0,0.75-0.68,1.26-1.97,1.56c-1.31,0.3-2.07,0.68-2.27,1.16l-8.2,21.61l-6.59,15.46h19.74l5.57-7.3   c0.11-0.15,0.45-0.22,1.02-0.22c0.57,0,2.43,1.44,5.55,4.3c3.14,2.87,4.7,4.58,4.7,5.15c0,0.53-0.23,0.8-0.7,0.8h-68.18   C176.53,255.18,172.19,255.44,165.24,255.99z M170.24,205.62l-2.37-3.83h60.17c3.9-5.09,6.01-7.63,6.33-7.63   c0.42,0,2.25,1.52,5.57,4.55c3.3,3.04,4.95,4.88,4.95,5.53c0,0.39-0.25,0.58-0.72,0.58h-64.79   C177.74,204.82,174.69,205.09,170.24,205.62z M185.83,206.43c9.87,13.84,14.8,23.96,14.8,30.35c0,2.88-0.78,5.39-2.31,7.53   c-1.55,2.14-3.11,3.21-4.64,3.21c-1.29,0-2.12-1.04-2.46-3.13c-0.23-15-2.6-27.38-7.07-37.12   C184.4,206.89,184.94,206.6,185.83,206.43z M195.33,179.78l1.02-1.25c3.87,1.22,7.33,2.75,10.36,4.61   c3.05,1.86,4.91,3.44,5.57,4.75c0.66,1.31,1,2.72,1,4.22c0,1.88-0.64,3.63-1.89,5.24c-1.27,1.62-2.62,2.43-4.02,2.43   c-1.5,0-2.54-1.28-3.13-3.83C202.85,189.74,199.87,184.35,195.33,179.78z"></path>
	<path class="st0" d="M164.27,71.23l-1.29-1.11c14.44-12.21,23.85-23.25,28.21-33.11l0.59-0.13l5.68,3.2   c2.18,1.22,3.26,2.07,3.26,2.54c0,0.33-0.72,0.78-2.16,1.36c-1.44,0.58-2.71,1.45-3.81,2.6c15.04,2.88,22.56,7.11,22.56,12.71   c0,0.62-0.27,1.49-0.76,2.6c-0.49,1.12-1.17,1.68-2.1,1.68c-0.42,0-1.44-0.84-3.07-2.5c-5.76-5.97-11.75-10.29-18.02-12.96   C185.15,57.23,175.43,64.93,164.27,71.23z M210.01,102.16v4.29l0.34,11.23c0.04,0.77-1.04,1.53-3.22,2.28   c-2.18,0.74-3.52,1.11-4,1.11c-0.42,0-0.61-0.26-0.61-0.75v-6.65h-15.69v4.91c0,0.8-1.08,1.55-3.24,2.26   c-2.16,0.72-3.3,1.07-3.47,1.07c-0.32,0-0.68-0.25-1.06-0.76l0.27-8.11v-6.42l-0.27-7.57c-0.04-0.03-0.08-0.04-0.13-0.04   c-0.11,0-0.26,0.2-0.42,0.62c-0.17,0.42-1.52,2.28-4.07,5.59c-2.56,3.32-5.74,6.56-9.55,9.73c-0.36-0.11-0.8-0.46-1.34-1.02   c5.51-7.48,9.06-13.86,10.7-19.14c1.63-5.26,2.46-11.94,2.46-19.98c0-3.36-0.15-6.9-0.42-10.61c0.36-0.06,0.99,0.13,1.84,0.54   l7.39,3.57h17.92l2.71-3.03c0.19-0.21,0.44-0.32,0.72-0.32c0.47,0,1.76,0.67,3.85,2.01c2.1,1.34,3.14,2.21,3.14,2.63   c0,0.33-0.44,0.83-1.29,1.52c-0.85,0.68-1.31,1.32-1.36,1.89c-0.04,0.58-0.06,2.22-0.06,4.92l0.23,12.57   c0,0.65-0.32,1.07-0.95,1.24l-4.91,1.65c-0.27,0.08-0.49,0.13-0.7,0.13c-0.51,0-0.76-0.27-0.76-0.84v-2.6h-21.71   c-0.44,1.64-0.93,3.11-1.48,4.42l6.55,3.07h14.53l2.8-3.43c0.17-0.17,0.38-0.26,0.66-0.26c0.3,0,0.64,0.11,0.99,0.35l6.02,3.93   c0.19,0.11,0.27,0.32,0.27,0.62c0,0.49-0.46,1.05-1.35,1.7C210.44,101.13,210.01,101.69,210.01,102.16z M204.08,79.97h-20.27   c-0.34,3.57-0.64,6.03-0.91,7.4h21.18V79.97z M183.88,77.25h20.2v-6.24h-20.2V77.25z M186.84,110.9h15.69v-10.56h-15.69V110.9z    M188.49,55.5l0.7-1.42c4.77,1.42,7.98,2.7,9.55,3.83c1.55,1.14,2.35,2.54,2.35,4.23c0,1.1-0.36,2.22-1.1,3.36   c-0.76,1.15-1.54,1.72-2.33,1.72c-1.04,0-1.76-0.58-2.18-1.73c-0.42-1.16-1.38-2.91-2.88-5.24   C191.1,57.92,189.72,56.34,188.49,55.5z M219.48,83.18V56.26l-0.44-6.77c4.66,1.31,7.45,2.13,8.34,2.45   c0.89,0.33,1.35,0.75,1.35,1.25c0,0.42-0.15,0.78-0.46,1.07l-2.58,2.36v14.04l0.08,16.63l0.25,9.94c0.02,0.65-0.81,1.28-2.54,1.89   c-1.71,0.61-2.86,0.9-3.45,0.9c-0.47,0-0.85-0.33-1.16-0.97L219.48,83.18z M242.05,46.78V97.4l0.17,13.68   c0.04,3.21-0.51,5.38-1.61,6.54c-1.12,1.14-4.24,2.81-9.34,5.01c-1.44-5.08-5.25-8.44-11.5-10.07l0.36-1.92   c5.91,1.25,10.04,1.87,12.39,1.87c1.17,0,1.8-0.4,1.88-1.21l0.17-2.76V52.43c0-4.37-0.17-9.09-0.55-14.17   c2.18,0.56,4.45,1.24,6.88,2c2.41,0.77,3.75,1.28,4.02,1.52c0.3,0.23,0.44,0.54,0.44,0.93c0,0.3-0.55,0.93-1.65,1.89   C242.59,45.58,242.05,46.3,242.05,46.78z"></path>
</g>
<g>
	<path class="st2" d="M397.06,285.37c-1.61,4.09-2.77,8.33-3.21,12.42c-7.74,4.09-17.82,6.43-29.8,6.43   c-33.88,0-53.89-21.18-53.89-48.78c0-40.31,27.31-55.79,57.98-55.79c10.22,0,23.08,3.07,29.8,7.16c-1.9,4.82-2.92,9.93-3.36,14.9   h-2.05c-7.3-9.06-14.75-13-25.12-13c-15.63,0-33.3,13.58-33.3,44.55c0,30.09,17.82,41.92,34.61,41.92   c9.35,0,20.16-4.38,26.44-10.95L397.06,285.37z"></path>
	<path class="st2" d="M481.48,253.53c-7.45-0.15-14.75-0.58-22.2-0.58c-7.3,0-14.75,0.29-22.2,0.58v8.32   c0,16.36,0.29,27.61,1.17,40.46c-3.21-0.29-7.16-0.73-11.98-0.73c-4.82,0-8.76,0.44-11.98,0.73c0.88-12.85,1.17-24.1,1.17-40.46   V242c0-16.36-0.29-27.6-1.17-40.46c3.21,0.29,7.16,0.73,11.98,0.73c4.82,0,8.76-0.44,11.98-0.73c-0.88,12.71-1.17,23.95-1.17,40.17   c4.97,0.15,11.98,0.29,22.35,0.29c10.37,0,16.5-0.15,22.05-0.29c0-16.21-0.29-27.46-1.17-40.17c3.21,0.29,7.16,0.73,11.98,0.73   c4.82,0,8.76-0.44,11.98-0.73c-0.88,12.85-1.17,24.1-1.17,40.46v19.86c0,16.36,0.29,27.61,1.17,40.46   c-3.21-0.29-7.16-0.73-11.98-0.73c-4.82,0-8.76,0.44-11.98,0.73c0.88-12.85,1.17-24.1,1.17-40.46V253.53z"></path>
	<path class="st2" d="M577.3,199.64c30.96,0,55.36,16.94,55.36,52.14c0,28.92-23.22,52.43-55.79,52.43   c-30.82,0-55.65-15.77-55.65-52.29C521.21,223.16,543.41,199.64,577.3,199.64z M576.86,207.96c-20.01,0-31.69,20.16-31.69,45.28   c0,31.11,14.31,41.92,30.67,41.92c17.53,0,32.86-14.61,32.86-46.45C608.7,223.45,595.7,207.96,576.86,207.96z"></path>
	<path class="st2" d="M651.35,201.54c2.19,0.44,4.38,0.73,6.57,0.73c2.19,0,4.38-0.29,6.57-0.73c21.03,23.22,41.92,46.3,63.39,69.53   c0-23.22,0-62.95-1.02-69.53c2.19,0.44,4.38,0.73,6.57,0.73c2.19,0,4.38-0.29,6.57-0.73c-2.34,42.5-2.34,61.93-2.34,100.78   c-2.05-0.44-3.94-0.73-5.99-0.73c-2.05,0-3.94,0.29-5.7,0.73c-20.01-23.66-41.33-47.32-63.83-70.98   c-0.29,10.95-0.29,23.08-0.29,34.03c0,23.37,0.44,31.55,0.88,36.95c-2.34-0.44-4.67-0.73-6.87-0.73c-2.19,0-4.53,0.29-6.72,0.73   c0.73-4.24,2.92-41.92,2.92-71.72C652.08,217.46,651.49,208.55,651.35,201.54z"></path>
	<path class="st2" d="M847.79,223.3c-6.13-8.76-15.48-14.61-28.77-14.61c-18.11,0-36.81,15.04-36.81,45.72   c0,23.22,13,40.75,35.49,40.75c4.97,0,13.58-1.02,15.92-2.63c0.44-2.34,0.44-5.99,0.44-10.22c0-15.77-0.87-22.35-1.02-25.12   c1.9,0.29,4.82,0.73,10.81,0.73c7.01,0,9.93-0.44,11.83-0.73c-0.73,3.07-1.17,15.19-1.17,24.54c0,6.13,0.15,13.88,0.44,16.07   c-12.71,3.65-26.15,6.43-39,6.43c-33.59,0-57.69-19.13-57.69-48.93c0-37.1,26.14-55.65,60.47-55.65c14.75,0,24.68,3.21,35.2,8.76   c-1.61,4.97-3.21,9.93-4.09,14.9H847.79z"></path>
	<path class="st2" d="M918.63,242c0-16.36-0.29-27.6-1.17-40.46c3.21,0.29,7.16,0.73,11.98,0.73c4.82,0,8.76-0.44,11.98-0.73   c-0.87,12.85-1.17,24.1-1.17,40.46v19.86c0,10.81,0.15,21.91,0.29,29.5c10.95,0,22.2-0.58,33.45-1.9c-0.29,2.04-0.58,3.5-0.58,6.57   c0,3.07,0.29,4.53,0.58,6.28c-5.26-0.15-12.12-0.73-25.56-0.73c-23.81,0-27.75,0.44-30.97,0.73c0.88-12.85,1.17-24.1,1.17-40.46   V242z"></path>
	<path class="st2" d="M1074.04,302.32c-4.67-0.29-8.76-0.73-12.85-0.73c-4.09,0-8.33,0.44-12.41,0.73   c-3.07-9.93-6.43-20.01-10.08-29.94c-6.28-0.15-12.41-0.29-18.7-0.29c-5.11,0-10.08,0.15-15.19,0.29   c-3.94,9.93-7.16,19.86-9.93,29.94c-2.34-0.29-4.53-0.73-6.87-0.73c-2.34,0-4.53,0.44-7.3,0.73   c7.16-16.21,29.06-68.21,41.63-101.51c1.9,0.29,3.65,0.73,5.55,0.73c1.9,0,3.65-0.44,5.55-0.73   C1045.85,234.11,1062.94,278.51,1074.04,302.32z M1035.33,263.76c-4.24-11.83-8.32-23.37-13-34.76   c-4.97,11.39-9.49,22.93-13.73,34.76H1035.33z"></path>
	<path class="st2" d="M1087.76,242c0-16.36-0.29-27.6-1.17-40.46c3.21,0.29,7.16,0.73,11.98,0.73c6.72,0,14.31-0.73,21.33-0.73   c13.73,0,20.89,2.19,25.41,5.99c6.13,5.11,9.06,11.1,9.06,19.72c0,22.35-15.77,31.26-37.54,31.26h-7.45   c0,14.61,0.15,29.21,1.17,43.82c-3.21-0.29-7.16-0.73-11.98-0.73c-4.82,0-8.76,0.44-11.98,0.73c0.88-12.85,1.17-24.1,1.17-40.46   V242z M1115.81,209.86c-2.34,0-4.53,0-6.13,0.15c-0.15,13.73-0.29,27.46-0.29,41.04c9.79,0,21.91-2.63,21.91-21.47   C1131.29,214.68,1124.13,209.86,1115.81,209.86z"></path>
</g>
<g>
	<path class="st2" d="M600.52,340.46c-8.89,10-11.86,20.56-11.86,37.51c0,14.54,3.15,25.47,11.76,35.38l-2.5,2.32   c-11.67-9.45-19.27-20.75-19.27-38.35c0-20.1,8.06-29.83,19.45-39.27L600.52,340.46z"></path>
	<path class="st2" d="M652.21,372.23c-4.72-0.09-9.35-0.37-14.08-0.37c-4.63,0-9.35,0.18-14.08,0.37v5.28   c0,10.37,0.19,17.51,0.74,25.66c-2.04-0.18-4.54-0.46-7.59-0.46s-5.56,0.28-7.6,0.46c0.56-8.15,0.74-15.28,0.74-25.66v-12.6   c0-10.37-0.18-17.51-0.74-25.66c2.04,0.18,4.54,0.46,7.6,0.46s5.56-0.28,7.59-0.46c-0.55,8.06-0.74,15.19-0.74,25.47   c3.15,0.09,7.6,0.18,14.17,0.18c6.58,0,10.47-0.09,13.99-0.18c0-10.28-0.18-17.42-0.74-25.47c2.04,0.18,4.54,0.46,7.6,0.46   c3.06,0,5.56-0.28,7.59-0.46c-0.55,8.15-0.74,15.28-0.74,25.66v12.6c0,10.37,0.19,17.51,0.74,25.66c-2.04-0.18-4.54-0.46-7.59-0.46   c-3.06,0-5.56,0.28-7.6,0.46c0.56-8.15,0.74-15.28,0.74-25.66V372.23z"></path>
	<path class="st2" d="M687.03,389.18c4.17,0,7.59,3.43,7.59,7.59c0,4.17-3.43,7.59-7.59,7.59c-4.17,0-7.6-3.43-7.6-7.59   C679.44,392.61,682.86,389.18,687.03,389.18z"></path>
	<path class="st2" d="M721.02,374.08c0,13.34,0,23.25,0.74,29.08c-2.04-0.18-4.54-0.46-7.59-0.46c-3.06,0-5.56,0.28-7.6,0.46   c0.55-8.15,0.74-15.28,0.74-25.66v-12.6c0-10.37-0.19-17.51-0.74-25.66c2.04,0.18,4.54,0.46,7.6,0.46c3.06,0,5.56-0.28,7.59-0.46   c-0.74,4.91-0.74,17.6-0.74,29.55c8.34-9.82,20.38-24.82,23.62-29.55c1.76,0.18,3.43,0.46,5.19,0.46c1.67,0,3.43-0.28,5.56-0.46   c-4.17,4.17-19.08,20.65-23.9,26.68c7.97,12.04,20.29,30.66,25.29,37.23c-3.61-0.18-6.3-0.46-8.98-0.46   c-2.69,0-5.37,0.28-8.06,0.46c-6.11-9.73-12.41-19.45-18.53-29.08H721.02z"></path>
	<path class="st2" d="M769.37,389.18c4.17,0,7.59,3.43,7.59,7.59c0,4.17-3.43,7.59-7.59,7.59c-4.17,0-7.6-3.43-7.6-7.59   C761.78,392.61,765.2,389.18,769.37,389.18z"></path>
	<path class="st2" d="M786.23,338.05c11.39,9.45,19.45,19.17,19.45,39.27c0,17.6-7.59,28.9-19.27,38.35l-2.5-2.32   c8.62-9.91,11.76-20.84,11.76-35.38c0-16.95-2.96-27.51-11.86-37.51L786.23,338.05z"></path>
	<path class="st2" d="M897.19,392.42c-1.02,2.59-1.76,5.28-2.04,7.87c-4.91,2.59-11.3,4.07-18.9,4.07   c-21.49,0-34.18-13.43-34.18-30.94c0-25.56,17.32-35.38,36.77-35.38c6.48,0,14.64,1.94,18.9,4.54c-1.2,3.06-1.85,6.3-2.13,9.45   h-1.3c-4.63-5.74-9.36-8.24-15.93-8.24c-9.91,0-21.12,8.61-21.12,28.25c0,19.08,11.3,26.58,21.95,26.58   c5.93,0,12.78-2.78,16.76-6.95L897.19,392.42z"></path>
	<path class="st2" d="M926.36,357.13c14.26,0,22.69,8.8,22.69,22.69c0,15.1-9.35,24.55-22.69,24.55c-11.02,0-22.69-6.11-22.69-22.51   C903.67,365.28,914.69,357.13,926.36,357.13z M926.55,361.3c-5.65,0-9.17,6.67-9.17,20.66c0,10.37,2.22,18.25,9.08,18.25   c5.74,0,8.89-7.41,8.89-21.77C935.35,367.78,932.66,361.3,926.55,361.3z"></path>
	<path class="st2" d="M964.99,389.18c4.17,0,7.59,3.43,7.59,7.59c0,4.17-3.43,7.59-7.59,7.59c-4.17,0-7.6-3.43-7.6-7.59   C957.39,392.61,960.82,389.18,964.99,389.18z"></path>
	<path class="st2" d="M1011.85,364.91c0-10.37-0.18-17.51-0.74-25.66c2.04,0.18,4.54,0.46,7.6,0.46c3.06,0,5.56-0.28,7.59-0.46   c-0.55,8.15-0.74,15.28-0.74,25.66v12.6c0,6.85,0.09,13.89,0.19,18.71c6.95,0,14.08-0.37,21.21-1.2c-0.19,1.3-0.37,2.22-0.37,4.17   c0,1.95,0.18,2.87,0.37,3.98c-3.33-0.09-7.69-0.46-16.21-0.46c-15.1,0-17.6,0.28-19.64,0.46c0.56-8.15,0.74-15.28,0.74-25.66   V364.91z"></path>
	<path class="st2" d="M1079.19,358.8c-0.19,0.93-0.28,1.67-0.28,2.5c0,0.74,0.09,1.57,0.28,2.32l-8.15-0.18   c-0.37,5.56-0.65,15.65-0.65,20.66c0,12.87,0.93,15,5.19,15c2.32,0,3.15-0.28,4.26-0.93v3.8c-2.41,1.48-6.58,2.41-10.1,2.41   c-7.69,0-11.76-5-11.76-14.36c0-7.13,0.65-18.71,0.65-26.49l-6.48,0.09c0.18-0.74,0.28-1.57,0.28-2.32c0-0.83-0.09-1.57-0.28-2.5   l6.48,0.28c0-3.89-0.09-6.67-0.37-11.39c4.26-1.76,8.52-3.7,12.69-5.74l0.93,0.65c-0.46,3.98-0.83,10.84-0.83,16.39L1079.19,358.8z   "></path>
	<path class="st2" d="M1126.61,371.12c0,12.13,0.28,21.58,0.74,32.05c-1.58-0.28-4.26-0.46-6.95-0.46c-2.5,0-5,0.18-6.21,0.46   c0.28-0.83,0.74-6.76,0.74-7.59l-0.18-0.19c-2.32,5.37-6.11,8.98-13.25,8.98c-12.5,0-17.69-10.93-17.69-24.08   c0-13.25,7.87-23.16,17.88-23.16c5.37,0,10.19,2.96,12.32,6.86h0.18c0-11.02-0.28-20.47-0.74-30.94c1.58,0.28,4.26,0.46,6.95,0.46   s5.37-0.18,6.95-0.46c-0.46,10.47-0.74,19.91-0.74,32.05V371.12z M1105.49,398.63c5,0,8.71-5.28,8.71-18.62   c0-11.49-3.43-16.49-8.24-16.49c-3.89,0-8.43,3.98-8.43,18.15C1097.53,394.27,1101.32,398.63,1105.49,398.63z"></path>
	<path class="st2" d="M1145.14,389.18c4.17,0,7.59,3.43,7.59,7.59c0,4.17-3.43,7.59-7.59,7.59c-4.17,0-7.6-3.43-7.6-7.59   C1137.54,392.61,1140.97,389.18,1145.14,389.18z"></path>
</g>
</svg>
